<?xml version="1.0" encoding="UTF-8"?>
<svg width="100.000005px" height="100.000044px" viewBox="0 0 100.000005 100.000044" version="1.1" xmlns="http://www.w3.org/2000/svg" xmlns:xlink="http://www.w3.org/1999/xlink">
    <title>link</title>
    <g id="link" stroke="none" stroke-width="1" fill="none" fill-rule="evenodd">
        <path d="M45.0082942,30.4685165 C51.5422947,30.4685165 57.8177533,33.0020622 62.5212516,37.5357755 C64.7813048,39.7984719 66.582665,42.4736828 67.8336363,45.419743 C68.5591975,47.1116182 67.7710824,49.0700863 66.0740142,49.7951498 C64.3810025,50.5202239 62.4212187,49.7326379 61.6956682,48.036709 C59.3611053,42.4823235 54.4069645,38.4527591 48.4899632,37.2902083 C42.5684786,36.1317112 36.4639224,37.9902136 32.1981947,42.2530776 L32.1981947,42.2530776 L11.9823965,62.4553043 C8.56317465,65.8391612 6.65757787,70.4561882 6.68676685,75.2649113 C6.68676685,80.0608333 8.5924234,84.6612189 11.9908295,88.0531832 C15.3847523,91.4450408 19.9882283,93.3494116 24.7876924,93.3494116 C29.5909994,93.3494116 34.1944754,91.4408805 37.5845553,88.0447558 L37.5845553,88.0447558 L48.5261506,77.110506 C49.8355126,75.8478508 51.9162304,75.8645989 53.20467,77.1521735 C54.4890104,78.4397481 54.5098262,80.5149087 53.2463655,81.8233917 L53.2463655,81.8233917 L42.3047702,92.7576415 C37.6591289,97.408058 31.3548486,100.012457 24.7832731,100 L24.784,100 L24.3272489,99.9960437 C18.070175,99.8843453 12.0883928,97.4138398 7.58255893,93.0740734 L7.25551524,92.7532006 C2.60613784,88.1064143 -0.00415958536,81.8063662 4.97556892e-06,75.2392025 C0.00417310663,68.667985 2.62279042,62.3674036 7.27633096,57.7294681 L7.27633096,57.7294681 L27.4953369,37.5357755 C32.1943518,33.0020622 38.474187,30.4685165 45.0082942,30.4685165 Z M75.3302409,4.26325641e-14 C81.8930631,4.26325641e-14 88.1938208,2.60011127 92.8431982,7.23388634 L92.8431982,7.23388634 C97.4271822,11.9143213 99.9958312,18.1978347 100.000005,24.7441967 C100.000005,31.2908788 97.4356153,37.5786591 92.8571181,42.258198 L92.8571181,42.258198 L72.6498596,62.4518906 C66.8203912,68.2815526 58.464108,70.831793 50.3663668,69.2483003 C42.2722549,67.6684345 35.4920953,62.1640798 32.285514,54.5676031 C31.5641159,52.8715676 32.352231,50.9130888 34.045136,50.1921964 C35.7423109,49.4671223 37.7021054,50.2547083 38.4234821,51.9506371 C39.3407614,54.1133784 40.6626128,56.0759962 42.3222127,57.7386422 C45.7746329,61.0222241 50.3572933,62.8557645 55.1233454,62.8557645 C59.8851277,62.8557645 64.4718444,61.0222241 67.9244782,57.7386422 L67.9244782,57.7386422 L88.1402764,37.5364156 C92.6394817,32.9525647 94.3699404,26.3274761 92.6895249,20.1269563 C91.0050529,13.9262233 86.1592605,9.08411075 79.9545754,7.40482333 C73.750424,5.72137556 67.1202442,7.45058717 62.5334207,11.9510177 L62.5334207,11.9510177 L51.5587338,22.918337 C50.9373579,23.5600548 50.0825685,23.9267522 49.1860622,23.9350835 C48.293655,23.9434256 47.4305393,23.5892199 46.8009012,22.9600045 C46.1670892,22.3265647 45.8168194,21.4640284 45.8209932,20.5722843 C45.8293302,19.6763159 46.1962739,18.8220896 46.8425967,18.2012056 L46.8425967,18.2012056 L57.8172836,7.23388634 C62.4618574,2.60021795 68.7628285,4.26325641e-14 75.3302409,4.26325641e-14 Z" id="Combined-Shape" fill="#121212"></path>
    </g>
</svg>