<svg width="300" height="53" viewBox="0 0 300 53" fill="none" xmlns="http://www.w3.org/2000/svg">
<g clip-path="url(#clip0_409_517)">
<path d="M23.0294 0.705882H35.3824V35.9118C35.3824 39.1765 34.5882 42.0882 33.0882 44.6471C31.5882 47.2059 29.4706 49.1471 26.7353 50.5588C24 51.9706 21 52.6765 17.6471 52.6765C12.0882 52.6765 7.67647 51.2647 4.58824 48.4412C1.5 45.6177 0 41.6471 0 36.4412H12.3529C12.3529 38.8235 12.7941 40.5 13.5882 41.5588C14.3824 42.6176 15.7941 43.1471 17.6471 43.1471C19.3235 43.1471 20.6471 42.5294 21.6176 41.2059C22.5 39.8824 23.0294 38.1176 23.0294 35.8235V0.705882ZM65.2059 38.3824C65.2059 36.6176 64.5882 35.1176 63.2647 34.1471C61.9412 33.1765 59.7353 32.1176 56.5588 30.9706C53.2941 29.9118 50.7353 28.8529 48.7059 27.7941C42.0882 24.5294 38.7353 20.0294 38.7353 14.3824C38.7353 11.5588 39.5294 9 41.2059 6.88235C42.8824 4.67647 45.1765 3 48.2647 1.76471C51.2647 0.529412 54.7059 0 58.4118 0C62.1176 0 65.3824 0.617647 68.2941 1.94118C71.2059 3.26471 73.5 5.11765 75.0882 7.58824C76.6765 9.97059 77.5588 12.7941 77.5588 15.8824H65.2941C65.2941 13.7647 64.6765 12.1765 63.3529 11.0294C62.0294 9.88235 60.3529 9.35294 58.1471 9.35294C55.9412 9.35294 54.1765 9.79412 52.9412 10.7647C51.6176 11.7353 51 12.9706 51 14.4706C51 15.7941 51.7059 16.9412 53.1177 18C54.5294 19.0588 57 20.2059 60.5294 21.3529C64.0588 22.5 66.9706 23.7353 69.2647 25.0588C74.8235 28.2353 77.5588 32.6471 77.5588 38.2059C77.5588 42.7059 75.8824 46.2353 72.4412 48.7941C69.0882 51.3529 64.4118 52.5882 58.5 52.5882C54.3529 52.5882 50.5588 51.8824 47.2059 50.3824C43.8529 48.8824 41.2941 46.8529 39.6177 44.2059C37.9412 41.6471 37.0588 38.6471 37.0588 35.2059H49.4118C49.4118 37.9412 50.1177 39.9706 51.5294 41.2941C52.9412 42.6176 55.2353 43.2353 58.4118 43.2353C60.4412 43.2353 62.0294 42.7941 63.2647 41.9118C64.5882 41.2059 65.2059 39.9706 65.2059 38.3824Z" fill="#0098FF"/>
<path d="M124.324 51.9705H112.059V30.5293H93.8824V51.9705H81.5294V0.705811H93.8824V21.0882H112.059V0.705811H124.324V51.9705ZM147.176 52.6764C141.353 52.6764 136.588 50.9117 132.971 47.4705C129.353 44.0293 127.588 39.4411 127.588 33.8823V32.9117C127.588 29.0293 128.294 25.5882 129.794 22.5882C131.294 19.5882 133.324 17.294 136.147 15.7058C138.882 14.1176 142.235 13.2352 146.029 13.2352C151.412 13.2352 155.559 14.9117 158.735 18.1764C161.824 21.5293 163.412 26.1176 163.412 32.0293V36.6176H139.853C140.294 38.7352 141.176 40.4117 142.588 41.647C144 42.8823 145.853 43.4999 148.147 43.4999C151.941 43.4999 154.853 42.1764 156.971 39.5293L162.353 45.8823C160.853 47.9117 158.824 49.4999 156.088 50.7352C153.176 52.0588 150.265 52.6764 147.176 52.6764ZM145.853 22.3235C142.412 22.3235 140.294 24.6176 139.676 29.2058H151.676V28.3235C151.765 26.3823 151.235 24.9705 150.265 23.9117C149.118 22.8529 147.706 22.3235 145.853 22.3235ZM189.618 24.6176L185.735 24.3529C182.029 24.3529 179.559 25.4999 178.5 27.8823V51.9705H166.588V13.8529H177.706L178.147 18.7058C180.176 14.9999 182.912 13.147 186.441 13.147C187.676 13.147 188.824 13.3235 189.794 13.5882L189.618 24.6176ZM190.235 32.5588C190.235 28.7646 190.941 25.3235 192.441 22.4117C193.941 19.4117 196.059 17.1176 198.794 15.5293C201.529 13.9411 204.794 13.147 208.588 13.147C214.324 13.147 218.824 14.9117 222.088 18.4411C225.353 21.9705 227.029 26.7352 227.029 32.8235V33.2646C227.029 39.1764 225.353 43.9411 222.088 47.3823C218.824 50.8235 214.324 52.5882 208.676 52.5882C203.294 52.5882 198.882 50.9999 195.618 47.7352C192.353 44.4705 190.588 40.0588 190.324 34.4999L190.235 32.5588ZM202.059 33.2646C202.059 36.794 202.588 39.3529 203.735 41.0293C204.882 42.7058 206.471 43.4999 208.588 43.4999C212.824 43.4999 214.941 40.2352 215.029 33.7058V32.4705C215.029 25.6764 212.824 22.2352 208.5 22.2352C204.529 22.2352 202.412 25.147 202.059 31.0588V33.2646ZM249.176 52.6764C243.353 52.6764 238.588 50.9117 234.971 47.4705C231.353 44.0293 229.588 39.4411 229.588 33.8823V32.9117C229.588 29.0293 230.294 25.5882 231.794 22.5882C233.206 19.5882 235.324 17.294 238.147 15.7058C240.882 14.1176 244.235 13.2352 248.029 13.2352C253.412 13.2352 257.559 14.9117 260.735 18.1764C263.824 21.5293 265.412 26.1176 265.412 32.0293V36.6176H241.853C242.294 38.7352 243.176 40.4117 244.588 41.647C246 42.8823 247.853 43.4999 250.147 43.4999C253.941 43.4999 256.853 42.1764 258.971 39.5293L264.353 45.8823C262.853 47.9117 260.824 49.4999 258.088 50.7352C255.176 52.0588 252.265 52.6764 249.176 52.6764ZM247.853 22.3235C244.412 22.3235 242.294 24.6176 241.676 29.2058H253.676V28.3235C253.765 26.3823 253.235 24.9705 252.265 23.9117C251.118 22.8529 249.706 22.3235 247.853 22.3235ZM288.441 41.294C288.441 40.3235 287.912 39.4411 286.853 38.9117C285.794 38.294 283.765 37.6764 280.853 36.9705C277.853 36.3529 275.471 35.4705 273.529 34.4117C271.588 33.3529 270.176 32.0293 269.118 30.5293C268.147 29.0293 267.618 27.2646 267.618 25.2352C267.618 21.794 269.118 18.8823 271.941 16.5882C274.853 14.294 278.559 13.2352 283.235 13.2352C288.265 13.2352 292.324 14.3823 295.324 16.6764C298.412 18.9705 299.912 21.9705 299.912 25.6764H288C288 22.5882 286.412 21.0882 283.147 21.0882C281.912 21.0882 280.853 21.4411 279.971 22.147C279.088 22.8529 278.735 23.647 278.735 24.7058C278.735 25.7646 279.265 26.647 280.235 27.2646C281.294 27.8823 282.882 28.4999 285.176 28.8529C287.471 29.2941 289.412 29.7352 291.176 30.3529C296.912 32.2941 299.735 35.8235 299.735 40.9411C299.735 44.3823 298.235 47.294 295.147 49.4117C292.059 51.6176 288.088 52.6764 283.147 52.6764C279.882 52.6764 276.971 52.0588 274.412 50.9117C271.853 49.7646 269.912 48.1764 268.412 46.147C267 44.1176 266.294 41.9999 266.294 39.794H277.412C277.5 41.5588 278.029 42.8823 279.176 43.6764C280.324 44.4705 281.735 44.9117 283.5 44.9117C285.088 44.9117 286.324 44.5588 287.118 43.9411C288.088 43.147 288.441 42.2646 288.441 41.294Z" fill="white"/>
</g>
<defs>
<clipPath id="clip0_409_517">
<rect width="300" height="52.6765" fill="white"/>
</clipPath>
</defs>
</svg>
