<?xml version="1.0" encoding="UTF-8"?>
<svg width="196px" height="60px" viewBox="0 0 196 60" version="1.1" xmlns="http://www.w3.org/2000/svg" xmlns:xlink="http://www.w3.org/1999/xlink">
    <!-- Generator: Sketch 54.1 (76490) - https://sketchapp.com -->
    <title>01.logo</title>
    <desc>Created with Sketch.</desc>
    <g id="FINAL" stroke="none" stroke-width="1" fill="none" fill-rule="evenodd">
        <g id="Press-Info" transform="translate(-345.000000, -801.000000)" fill="#F45919">
            <path d="M472.375503,830.901109 L474.93913,822.694029 L480.167862,822.694029 L475.399268,838.460293 L475.108395,839.303585 C474.258372,841.565252 472.357015,843.147761 470.099462,843.152698 L470.079331,843.152698 C470.07892,843.152698 470.078099,843.152698 470.077277,843.152698 C470.076455,843.152698 470.075634,843.152698 470.074812,843.152698 L470.074401,843.152698 L470.055502,843.152698 L470.054681,843.152698 C470.053859,843.152698 470.053448,843.152698 470.052627,843.152698 L470.052216,843.152698 C470.051805,843.152698 470.050572,843.152698 470.050162,843.152698 L470.030031,843.152698 C467.772477,843.147761 465.871121,841.565252 465.021097,839.303585 L464.730224,838.460293 L459.961631,822.694029 L465.190362,822.694029 L467.75399,830.901109 L470.039891,838.218824 L470.064541,838.218824 L470.064541,838.219235 L470.064952,838.218824 L470.089602,838.218824 L472.375503,830.901109 Z M513.671511,842.911763 L513.671511,822.664946 L519.071562,822.664946 L519.071562,842.994035 C519.071562,846.698348 516.072036,849.70129 512.372032,849.70129 L509.994925,849.70129 L509.994925,845.023283 L511.562271,845.023283 C512.726995,845.023283 513.671511,844.077974 513.671511,842.911763 Z M540.467044,834.02207 C540.826116,834.658858 541.004831,835.442913 540.999901,836.375059 C540.993327,837.695942 540.722174,838.802094 540.188085,839.693104 C539.653175,840.584113 538.958037,841.299471 538.102262,841.839589 C537.244844,842.379296 536.26705,842.756926 535.167238,842.971246 C534.065371,843.185977 532.946249,843.290874 531.80864,843.285526 C530.643915,843.279767 529.506716,843.157593 528.395811,842.919414 C527.284084,842.680824 526.296841,842.287151 525.432439,841.739629 C524.568447,841.191283 523.860985,840.468932 523.30923,839.572986 C522.757064,838.676217 522.458385,837.555256 522.414014,836.207635 L527.651784,836.233139 C527.649319,836.829203 527.769284,837.340525 528.013321,837.769164 C528.256126,838.197803 528.57206,838.549106 528.958248,838.823073 C529.345257,839.096629 529.790605,839.299842 530.294703,839.431477 C530.79839,839.563936 531.321797,839.630988 531.865335,839.633867 C532.253166,839.635513 532.660306,839.592731 533.087578,839.503466 C533.514849,839.415023 533.903501,839.274337 534.253946,839.08182 C534.603979,838.889303 534.896496,838.632201 535.131084,838.308871 C535.365262,837.986363 535.483994,837.579115 535.486459,837.086715 C535.490567,836.258232 534.943742,835.633785 533.846395,835.213785 C532.748226,834.794607 531.217034,834.37255 529.254051,833.948436 C528.452507,833.763734 527.670683,833.546124 526.909811,833.296016 C526.147296,833.046731 525.469825,832.719287 524.876986,832.314918 C524.283326,831.910549 523.807576,831.40334 523.448504,830.792468 C523.089021,830.18283 522.911949,829.437031 522.916058,828.556305 C522.922631,827.261338 523.179816,826.200847 523.687611,825.37401 C524.196228,824.547996 524.865483,823.897221 525.695375,823.421687 C526.525678,822.946564 527.45869,822.614595 528.494412,822.424957 C529.529723,822.235731 530.591328,822.143997 531.677583,822.149345 C532.764248,822.154281 533.817225,822.263292 534.838979,822.475143 C535.859499,822.687818 536.769094,823.042 537.568995,823.537691 C538.368485,824.033382 539.031577,824.690327 539.55786,825.509348 C540.083733,826.327547 540.395969,827.358831 540.493749,828.602378 L535.255157,828.577285 C535.18285,827.514737 534.785159,826.794443 534.062906,826.414756 C533.339832,826.036303 532.487344,825.844197 531.50462,825.83926 C531.194027,825.837615 530.85714,825.855303 530.495603,825.892737 C530.132833,825.92976 529.802519,826.012855 529.504662,826.140377 C529.206805,826.268722 528.953318,826.455069 528.745434,826.700241 C528.537139,826.945412 528.432376,827.275324 528.430321,827.689154 C528.427446,828.181555 528.606571,828.583866 528.967286,828.896501 C529.328002,829.208725 529.799233,829.463358 530.380157,829.6604 C530.961082,829.857854 531.626228,830.035562 532.376417,830.194759 C533.125785,830.353956 533.887889,830.526317 534.662729,830.710607 C535.463452,830.896543 536.245276,831.120323 537.00738,831.382772 C537.769073,831.645632 538.445723,831.991999 539.039794,832.421872 C539.632222,832.852568 540.108383,833.386104 540.467044,834.02207 Z M506.821286,822.267941 C508.55954,822.276168 509.96214,823.694132 509.953923,825.434604 C509.945296,827.175487 508.529138,828.579465 506.790884,828.571238 L506.668043,828.570415 C504.929789,828.562188 503.526778,827.144223 503.535817,825.403752 C503.543623,823.66328 504.960191,822.258891 506.698445,822.267529 L506.821286,822.267941 Z M516.376056,812.684074 C518.114721,812.692713 519.517321,814.110677 519.509104,815.85156 C519.500477,817.592443 518.084319,818.997244 516.345654,818.988605 L516.222813,818.988194 C514.484148,818.979555 513.081138,817.561591 513.089765,815.820708 C513.097982,814.079825 514.51455,812.675436 516.253215,812.683663 L516.376056,812.684074 Z M444.703366,830.553426 L453.666201,830.596619 C453.414768,829.196754 452.961203,828.133384 452.304274,827.404451 C451.648166,826.676752 450.647776,826.308583 449.302694,826.302001 C448.423501,826.297888 447.691388,826.443921 447.107999,826.738456 C446.524609,827.033403 446.057487,827.400337 445.70581,827.838849 C445.354543,828.277772 445.105987,828.743022 444.962193,829.233777 C444.816757,829.725354 444.730481,830.1651 444.703366,830.553426 Z M457.045752,825.834694 C457.855924,826.952776 458.43767,828.224295 458.793455,829.650075 C459.148419,831.076678 459.270438,832.56663 459.159922,834.120344 L444.68611,834.050001 C444.755542,835.837779 445.202123,837.135626 446.025852,837.941895 C446.849993,838.748987 448.037724,839.156235 449.59028,839.16364 C450.702007,839.168987 451.660902,838.895432 452.465322,838.34215 C453.269742,837.78928 453.763569,837.202678 453.948446,836.581522 L458.798796,836.604969 C458.010809,839.00979 456.811985,840.727226 455.203555,841.755219 C453.594304,842.783624 451.651453,843.291656 449.375412,843.280549 C447.797384,843.273144 446.375886,843.013986 445.111738,842.502664 C443.845947,841.991752 442.776537,841.267344 441.901453,840.331085 C441.026779,839.394002 440.352594,838.277566 439.880953,836.97972 C439.407668,835.682696 439.175955,834.256505 439.18294,832.702791 C439.190745,831.200909 439.442589,829.803513 439.941346,828.510603 C440.438459,827.218104 441.141814,826.101257 442.051819,825.15965 C442.961825,824.218865 444.045204,823.479237 445.302367,822.941587 C446.55953,822.403525 447.951448,822.138197 449.47771,822.145602 C451.185563,822.15424 452.671563,822.491557 453.935299,823.157963 C455.199447,823.82478 456.236401,824.717024 457.045752,825.834694 Z M495.818929,835.125219 C495.978334,834.362142 496.05968,833.578909 496.063788,832.775931 C496.067075,831.973364 495.993535,831.182316 495.842347,830.40443 C495.690748,829.626545 495.428222,828.939571 495.056825,828.341862 C494.684195,827.744565 494.182152,827.25669 493.550694,826.877826 C492.918004,826.499373 492.137002,826.307267 491.205632,826.302742 C490.274674,826.298217 489.497369,826.482918 488.87495,826.855201 C488.252531,827.227894 487.751309,827.710833 487.373749,828.30484 C486.995368,828.899257 486.727912,829.583352 486.568097,830.360003 C486.409924,831.136243 486.327757,831.926058 486.324059,832.728625 C486.319951,833.531603 486.394312,834.31607 486.545501,835.08038 C486.69751,835.845102 486.958803,836.53331 487.331844,837.14336 C487.703241,837.753821 488.199122,838.242107 488.817844,838.607396 C489.437387,838.973508 490.212638,839.15821 491.143185,839.162735 C492.074965,839.16726 492.858022,838.989963 493.493588,838.630433 C494.129154,838.270902 494.636127,837.787552 495.014509,837.180382 C495.391247,836.574035 495.660346,835.888295 495.818929,835.125219 Z M498.778193,825.076884 C499.67916,826.000802 500.371832,827.118472 500.857032,828.427837 C501.34182,829.738436 501.581338,831.196713 501.573533,832.80267 C501.565727,834.408626 501.312651,835.857854 500.815126,837.149941 C500.317191,838.443263 499.613426,839.547358 498.703831,840.461815 C497.793826,841.377095 496.697711,842.078056 495.415486,842.563463 C494.132851,843.04887 492.700671,843.288694 491.123054,843.280878 C489.545437,843.273473 488.123939,843.020074 486.859381,842.521915 C485.593179,842.024168 484.510621,841.312923 483.609654,840.388593 C482.709098,839.465497 482.016015,838.35482 481.531226,837.056974 C481.046027,835.759538 480.80733,834.308254 480.814725,832.702297 C480.822531,831.096341 481.075197,829.640531 481.572721,828.334869 C482.070245,827.029618 482.774421,825.919353 483.684016,825.004072 C484.594021,824.089204 485.683563,823.381661 486.953873,822.88268 C488.223362,822.383698 489.647736,822.138115 491.225764,822.145519 C492.802969,822.153335 494.231863,822.412904 495.509568,822.923816 C496.787684,823.43555 497.876815,824.153376 498.778193,825.076884 Z M423.214212,826.757749 C423.214212,824.510891 425.033402,822.689381 427.277397,822.689381 L437.331828,822.689381 L437.331828,828.059298 L428.723957,828.059298 L428.723957,842.83418 L423.214212,842.83418 L423.214212,826.757749 Z M366.149514,836.294021 L366.149514,843.35299 L373.199489,843.35299 L373.199489,836.294021 L373.199489,829.235052 L380.249053,829.235052 L387.299027,829.235052 L387.299027,822.176495 L380.249053,822.176495 L373.199489,822.176495 L366.149514,822.176495 L366.149514,829.235052 L366.149514,836.294021 Z M345,818.64701 L362.624526,801 L404.923554,801 L404.923554,843.35299 L387.299027,861 L345,861 L345,818.64701 Z" id="01.logo"></path>
        </g>
    </g>
</svg>