<svg x="0" y="0" width="1685" height="758" version="1.1" xmlns="http://www.w3.org/2000/svg" xmlns:xlink="http://www.w3.org/1999/xlink"
style="display: block;margin-left: auto;margin-right: auto;">
<defs>

<style type="text/css"><![CDATA[
	.g2_1{
		fill: #3F3F40;
	}
	.g1_1{
		fill: #EFC418;
	}
]]></style>

</defs>
<path d="M1276.2,0L1173.8,22.5l21.1,96.1L1297.3,96.2Z" class="g1_1" />
<path d="M1548.7,177.6c-9.5,-3.5,-19.1,-4.1,-28.8,-2c-10.6,2.3,-17.7,5.8,-21.2,10.5c-3.6,4.6,-4.6,10.6,-2.9,18c1.6,7.4,6.6,12.8,15.1,16.2c8.5,3.5,18.9,6.4,31.3,8.8c12.4,2.3,25.8,4.9,40.2,7.8c14.4,2.9,28.2,7.6,41.5,14.1c7.9,3.9,15.2,8.7,22,14.4l-13.6,-95.9l-55,32.6c-9.6,-12.8,-19.2,-21,-28.6,-24.5Z" class="g1_1" />
<path d="M1626.3,447c-14.6,9.2,-31.6,16,-51,20.2c-31.8,7,-60.4,6,-85.9,-3.2c-25.5,-9.1,-47.5,-27.6,-66.2,-55.4l65,-47.7c10.1,13.3,21.3,21.9,33.6,26c12.2,4.1,23.2,5.1,32.9,2.9c18.4,-4,25.9,-14.1,22.3,-30.3c-1.7,-7.8,-6.9,-13.5,-15.7,-17.2c-8.8,-3.6,-19.3,-6.7,-31.4,-9.4c-12.2,-2.6,-25.6,-5.2,-40.2,-7.8c-14.6,-2.6,-28.4,-7.2,-41.5,-13.8c-13,-6.5,-24.8,-15.5,-35.3,-27C1402.4,272.8,1395,257,1390.5,236.7c-3.4,-15.7,-3.8,-30.9,-0.9,-45.5c2.8,-14.7,8.8,-28.2,17.9,-40.6c9.1,-12.4,21.3,-23.1,36.4,-32.3c5.5,-3.3,11.3,-6.3,17.5,-9l-371.5,52.9l39,274.8L1204,420.5L1229.3,536l-83.7,18.4l9.4,65.7l99.8,-14.2l-12.9,-42.2c14.4,-5.1,24.2,-12.7,29.5,-22.8c5.2,-10.1,5.4,-26.2,0.6,-48.3L1201.2,170.2l112.7,-24.8l70.7,321.7c10.4,47.5,6.3,86.1,-12.3,115.8c-1.5,2.4,-3.1,4.7,-4.8,6.9l318.1,-45.2L1666.1,407.8c-1.2,2,-2.5,4,-3.9,5.9c-9.3,12.9,-21.2,24,-35.9,33.3Z" class="g1_1" />
<path d="M1627.5,136l-7,-49.3l-62.9,9c10.1,1.8,19.7,4.8,28.7,9.1c16,7.6,29.8,18,41.2,31.2Z" class="g1_1" />
<path d="M107.6,739.8C86.1,718,72,683.4,65.2,636.2L41.1,466.6L15,461L34.7,758.1l89,-5.9c-5.9,-3.4,-11.3,-7.6,-16.1,-12.4Z" class="g2_1" />
<path d="M346.6,735.9L288.5,327.5L418.3,309.1l58,408.3Zm731.3,-104L959.5,648.7L923.6,396.4c-2.9,-20.1,-7.9,-34.3,-15,-42.5c-7.1,-8.2,-17,-11.4,-29.8,-9.6c-10.6,1.5,-18.9,6.9,-24.9,16.1c-6,9.3,-7.4,24.8,-4.3,46.5l35.8,252.4L755.7,677.7L719.8,425.4c-3.1,-21.8,-8.3,-36.3,-15.5,-43.7c-7.3,-7.3,-16.2,-10.3,-26.8,-8.8c-8.5,1.2,-15.9,4.7,-22.1,10.5c-6.2,5.7,-10.9,12.9,-14,21.5l40.3,283.3L551.9,706.7l-58,-408.4L609.3,281.9l5.1,35.9l1.6,-0.3c20.2,-32.6,50.5,-51.8,90.9,-57.6c40.8,-5.8,73.5,6.9,98,38.1c11.5,-17.9,25.6,-32.6,42.4,-44.2c16.7,-11.6,36.5,-19,59.4,-22.3c39.8,-5.6,72.1,2.9,97,25.6c24.8,22.8,41.4,62.8,49.5,120.1l14.7,103.2L1047,164.9l-649.6,43l6.2,44L285.8,268.6l-7.5,-52.8L0,234.3L8.7,365.6l23.8,-5.7l18,-113l89.2,-12.7l15.9,112.2l75.6,-10.7l13.5,94.7l-75.6,10.8l26,183c1.9,13.3,6.9,23.1,15.2,29.5c8.2,6.5,19.2,8.7,33,6.7c8.5,-1.2,17.3,-3.8,26.5,-7.8L290,731.7c-5.8,3.9,-11.9,7.4,-18.2,10.7l809.9,-53.6Z" class="g2_1" />

</svg>
