<?xml version="1.0" standalone="no"?>
<!DOCTYPE svg PUBLIC "-//W3C//DTD SVG 20010904//EN"
 "http://www.w3.org/TR/2001/REC-SVG-20010904/DTD/svg10.dtd">
<svg version="1.0" xmlns="http://www.w3.org/2000/svg"
 width="1000.000000pt" height="1000.000000pt" viewBox="0 0 1000.000000 1000.000000"
 preserveAspectRatio="xMidYMid meet">
<metadata>
Created by potrace 1.11, written by Peter Selinger 2001-2013
</metadata>
<g transform="translate(0.000000,1000.000000) scale(0.100000,-0.100000)"
fill="#000000" stroke="none">
<path d="M4051 6925 c-13 -27 -25 -68 -23 -77 1 -5 -2 -8 -6 -8 -4 0 -9 -8
-10 -17 -2 -21 -7 -42 -14 -63 -7 -18 -33 -103 -34 -110 -4 -25 -19 -67 -26
-77 -5 -7 -7 -17 -3 -23 3 -5 2 -10 -2 -10 -5 0 -10 -12 -11 -27 -1 -15 -6
-29 -10 -32 -4 -3 -7 -13 -7 -21 1 -8 -2 -20 -7 -26 -4 -6 -10 -21 -12 -35 -3
-13 -5 -25 -7 -26 -1 -2 -2 -6 -3 -10 -2 -5 -9 -28 -16 -53 -7 -25 -14 -47
-15 -50 -1 -3 -7 -25 -15 -50 -7 -25 -13 -48 -12 -52 1 -5 -2 -8 -7 -8 -6 0
-8 -9 -6 -20 2 -11 0 -20 -6 -20 -5 0 -8 -3 -7 -7 1 -5 -6 -35 -16 -68 -10
-33 -19 -65 -20 -71 -1 -7 -7 -19 -14 -27 -7 -8 -10 -22 -6 -31 3 -9 2 -16 -4
-16 -6 0 -9 -8 -7 -17 1 -10 -2 -27 -8 -38 -6 -11 -12 -24 -12 -30 -1 -5 -4
-17 -7 -25 -20 -56 -27 -84 -22 -91 3 -5 0 -9 -6 -9 -6 0 -10 -6 -9 -12 1 -7
-4 -26 -11 -43 -7 -16 -13 -37 -14 -45 -1 -14 -20 -76 -33 -110 -3 -8 -8 -24
-10 -35 -2 -11 -6 -27 -10 -35 -3 -8 -7 -18 -8 -22 -2 -5 -3 -9 -5 -10 -2 -3
-6 -19 -13 -48 -2 -8 -12 -42 -22 -75 -10 -33 -18 -63 -17 -67 1 -5 -3 -8 -9
-8 -5 0 -8 -4 -5 -8 3 -5 -6 -44 -20 -88 -14 -43 -28 -90 -31 -104 -2 -13 -10
-28 -16 -32 -7 -4 -9 -8 -5 -8 4 0 2 -15 -4 -32 -5 -18 -10 -39 -11 -45 0 -7
-4 -13 -9 -13 -5 0 -7 -4 -4 -8 6 -10 -14 -82 -23 -82 -3 0 -7 -14 -8 -31 -1
-17 -8 -37 -14 -45 -6 -8 -9 -14 -5 -14 3 0 1 -12 -5 -27 -13 -35 -21 -62 -23
-88 -1 -11 -9 -31 -16 -45 -8 -14 -13 -31 -12 -37 2 -7 -1 -13 -5 -13 -5 0 -9
-8 -10 -17 -2 -28 -11 -64 -21 -77 -5 -6 -9 -24 -10 -40 -1 -17 -5 -32 -10
-35 -4 -3 -8 -15 -10 -26 -2 -11 -6 -27 -9 -35 -8 -18 -7 -17 -17 -60 -5 -19
-11 -39 -14 -45 -4 -5 -8 -14 -9 -20 -11 -46 -39 -142 -44 -150 -8 -12 -21
-72 -19 -81 1 -4 -2 -10 -7 -13 -7 -5 -29 -76 -37 -116 -1 -5 -4 -14 -8 -20
-3 -5 -9 -26 -13 -45 -4 -19 -10 -39 -13 -45 -4 -5 -7 -16 -8 -23 -2 -8 -6
-21 -10 -30 -4 -9 -6 -25 -5 -36 2 -12 -2 -16 -9 -11 -8 5 -11 1 -8 -11 2 -11
-4 -38 -14 -61 -9 -24 -15 -43 -13 -43 3 0 0 -12 -6 -27 -6 -16 -13 -37 -15
-48 -2 -11 -8 -21 -13 -23 -6 -2 -7 -10 -4 -18 3 -8 0 -20 -6 -28 -6 -7 -8
-16 -4 -19 3 -4 1 -12 -5 -19 -5 -7 -13 -30 -17 -50 -4 -21 -11 -38 -15 -38
-4 0 -6 -14 -5 -30 1 -17 -3 -34 -8 -37 -6 -4 -7 -1 -2 7 5 8 4 11 -3 6 -6 -4
-8 -14 -5 -22 4 -12 18 -15 59 -12 30 1 54 1 54 -2 0 -5 164 -3 213 3 15 2 27
1 27 -2 0 -8 136 -5 149 4 6 3 11 3 11 -2 0 -9 134 -8 149 2 6 3 11 3 11 -2 0
-9 134 -8 149 2 6 3 11 3 11 -2 0 -8 351 -8 383 1 9 2 17 1 17 -2 0 -4 17 -6
37 -5 21 1 53 2 72 2 25 1 32 5 27 16 -3 8 -2 15 3 15 7 0 24 55 19 63 -1 1 5
13 13 27 7 14 15 32 16 40 1 8 4 22 6 30 2 8 7 29 12 45 4 17 12 36 18 43 5 7
7 15 4 19 -4 3 -2 12 4 20 6 7 9 13 6 13 -4 0 2 20 13 45 11 25 17 45 15 45
-3 0 0 12 6 28 11 27 18 53 24 82 1 8 9 31 16 50 7 19 12 38 11 43 -1 4 3 7 9
7 5 0 8 4 4 10 -3 5 1 24 8 42 8 18 14 35 14 38 1 14 27 96 33 105 4 6 6 19 4
30 -1 11 3 26 11 35 7 8 14 20 14 25 3 32 15 76 22 81 5 3 9 15 9 27 0 13 8
33 17 46 9 14 11 21 5 17 -7 -4 -12 -3 -12 3 0 5 5 13 10 16 6 3 10 17 10 31
0 13 5 24 12 24 6 0 8 3 5 7 -4 3 -1 13 6 21 10 13 9 14 -3 7 -13 -7 -13 -6
-2 7 7 9 15 25 17 37 10 45 14 57 23 82 6 15 8 30 5 33 -4 3 0 6 7 6 7 0 11 3
7 6 -3 4 0 21 7 38 7 17 13 33 13 36 1 3 6 23 12 45 6 22 10 42 10 45 -1 3 6
22 14 43 9 20 13 37 10 37 -3 0 0 7 7 15 7 8 9 15 5 15 -4 0 -2 7 5 15 7 9 10
18 7 22 -4 3 -3 11 2 17 8 10 31 83 30 96 0 3 7 22 16 43 8 20 13 37 11 37 -3
0 1 15 9 34 8 18 11 36 8 40 -4 3 -1 6 5 6 7 0 11 3 10 8 -3 9 34 146 41 152
6 5 10 17 18 60 2 14 10 37 18 53 9 18 10 25 2 20 -9 -5 -9 -3 0 8 9 11 33 80
37 109 1 3 5 11 9 18 5 6 6 12 2 12 -3 0 1 15 8 33 8 17 14 35 15 40 3 30 15
67 22 67 4 0 6 9 3 20 -3 11 0 20 6 20 5 0 8 7 5 15 -4 8 -1 15 7 15 7 0 10 3
6 6 -3 3 0 22 7 42 7 21 12 44 11 52 0 8 5 21 12 28 7 8 11 18 8 23 -4 5 -1 9
5 9 6 0 9 4 6 9 -4 5 -1 22 5 38 6 15 12 35 14 43 3 17 34 117 43 140 7 19 7
18 16 60 5 19 12 40 16 45 5 6 11 24 13 40 8 42 40 149 46 155 6 5 10 17 17
59 3 13 9 32 15 43 5 10 8 18 5 18 -2 0 4 23 15 51 10 29 16 56 13 60 -3 5 -1
9 4 9 8 0 10 6 14 50 1 11 6 20 10 20 4 0 8 9 8 20 0 11 6 20 13 20 8 0 7 4
-3 10 -10 6 -11 10 -3 10 7 0 12 3 12 8 -1 4 0 9 1 12 3 10 11 45 12 58 1 6 5
12 9 12 4 0 6 8 4 18 -1 9 0 22 4 27 6 10 7 16 10 36 0 5 5 8 9 5 6 -4 9 32 3
54 -2 8 -45 5 -59 -4 -7 -4 -12 -2 -12 4 0 6 -4 9 -8 6 -10 -6 -32 -7 -184 -6
-60 0 -114 0 -120 0 -7 0 -34 0 -59 1 -25 1 -51 -1 -57 -5 -7 -4 -12 -4 -12 1
0 10 -52 9 -68 -1 -7 -4 -12 -2 -12 4 0 7 -6 8 -19 1 -10 -6 -21 -8 -24 -4 -4
3 -54 5 -112 4 -58 -1 -111 -1 -117 -1 -7 0 -120 1 -250 2 -229 3 -238 2 -247
-17z"/>
<path d="M6033 6942 c-19 -3 -40 -41 -35 -64 1 -5 -1 -8 -5 -8 -5 0 -9 -12
-10 -26 0 -15 -5 -29 -10 -33 -4 -3 -8 -10 -9 -16 0 -16 -15 -66 -35 -124 -10
-30 -16 -58 -13 -63 3 -4 1 -8 -4 -8 -8 0 -10 -6 -14 -50 -1 -11 -6 -20 -11
-20 -5 0 -7 -7 -3 -15 3 -8 0 -15 -6 -15 -6 0 -8 -3 -5 -7 4 -3 2 -12 -4 -20
-6 -7 -9 -13 -5 -13 3 0 0 -16 -8 -35 -8 -19 -13 -35 -10 -35 2 0 -2 -13 -10
-29 -9 -16 -12 -31 -9 -34 3 -4 1 -13 -5 -20 -7 -8 -9 -17 -5 -20 3 -4 1 -7
-5 -7 -6 0 -9 -7 -6 -15 4 -8 2 -15 -3 -15 -5 0 -9 -8 -10 -18 -1 -10 -11 -47
-22 -83 -21 -65 -31 -101 -34 -129 -1 -8 -6 -18 -10 -21 -4 -3 -10 -18 -13
-34 -3 -16 -7 -32 -10 -37 -3 -4 -7 -17 -10 -28 -2 -11 -6 -28 -8 -38 -2 -10
-11 -35 -20 -55 -8 -21 -15 -40 -16 -42 0 -3 0 -6 -1 -7 -3 -10 -10 -46 -11
-60 -1 -10 -6 -18 -11 -18 -5 0 -7 -6 -4 -14 3 -7 2 -17 -2 -22 -8 -9 -41
-110 -45 -136 -1 -7 -4 -17 -7 -23 -7 -11 -22 -63 -23 -80 -1 -5 -7 -20 -13
-31 -7 -12 -10 -24 -6 -27 3 -4 1 -12 -4 -19 -11 -14 -49 -149 -45 -160 1 -5
-2 -8 -6 -8 -5 0 -9 -6 -10 -12 -1 -15 -10 -53 -12 -53 -2 0 -11 -38 -12 -52
-1 -7 -6 -13 -11 -13 -5 0 -7 -6 -4 -14 3 -8 3 -17 -1 -21 -4 -4 -8 -11 -8
-16 -1 -5 -3 -11 -4 -14 -1 -3 -3 -8 -4 -12 -2 -5 -8 -28 -16 -53 -17 -58 -21
-72 -22 -87 -1 -7 -4 -13 -8 -13 -5 0 -9 -18 -12 -57 -1 -7 -5 -13 -9 -13 -6
0 -16 -37 -21 -77 -1 -7 -5 -13 -9 -13 -5 0 -6 -6 -3 -14 3 -8 1 -17 -5 -20
-6 -4 -8 -13 -4 -21 3 -8 0 -15 -6 -15 -6 0 -10 -3 -10 -7 1 -5 1 -10 -1 -13
-1 -3 -3 -16 -6 -30 -2 -14 -7 -32 -11 -40 -8 -18 -7 -17 -17 -60 -5 -19 -11
-39 -15 -45 -3 -5 -6 -12 -7 -15 0 -3 -6 -25 -14 -50 -13 -44 -18 -61 -23 -87
-2 -7 -6 -16 -10 -19 -4 -4 -7 -18 -7 -30 0 -13 -5 -26 -11 -30 -6 -3 -9 -15
-6 -25 3 -11 2 -19 -2 -19 -4 0 -13 -21 -20 -47 -8 -27 -16 -55 -18 -63 -3 -8
-5 -23 -6 -32 -1 -10 -5 -18 -9 -18 -4 0 -8 -9 -8 -19 0 -11 -5 -32 -12 -48
-6 -15 -12 -32 -14 -38 -3 -11 -14 -55 -17 -70 -2 -5 -6 -15 -9 -21 -7 -10
-17 -53 -21 -84 -1 -8 -5 -17 -9 -20 -4 -3 -10 -17 -12 -30 -2 -14 -5 -26 -7
-27 -1 -2 -3 -7 -4 -13 -1 -5 -4 -12 -5 -15 -1 -3 -4 -9 -5 -15 -1 -5 -3 -11
-5 -12 -2 -3 -6 -18 -14 -57 -3 -12 -10 -29 -16 -36 -6 -7 -10 -17 -8 -21 4
-15 -24 -108 -39 -125 -7 -9 -10 -18 -7 -21 3 -4 -8 -50 -25 -104 -17 -53 -31
-101 -31 -106 0 -5 15 -8 33 -8 17 1 137 1 264 0 128 -1 237 2 243 5 5 3 10 3
10 -2 0 -8 591 -8 623 1 9 2 17 1 17 -2 0 -8 157 -4 180 4 13 4 13 6 0 14 -10
7 -11 10 -2 10 6 0 12 9 12 19 0 11 4 22 10 26 5 3 7 12 3 20 -3 8 -1 15 4 15
8 0 12 15 15 58 1 6 6 12 11 12 6 0 7 3 4 6 -3 4 -1 16 5 28 7 11 11 25 10 30
-2 5 0 16 4 25 4 9 8 19 9 24 2 4 3 8 5 10 1 1 4 16 6 32 3 17 9 32 15 33 5 2
7 8 3 13 -3 5 -2 15 3 22 4 6 8 14 9 17 0 3 6 25 14 50 7 25 15 52 16 61 2 9
9 29 15 45 7 16 11 33 10 37 0 4 4 17 10 28 10 20 21 61 22 87 0 6 4 12 9 12
4 0 8 11 8 24 0 14 5 28 10 31 6 4 8 11 4 16 -3 5 -1 15 4 22 10 13 27 77 24
90 -1 4 2 7 7 7 5 0 8 8 7 18 -2 9 1 20 5 23 5 3 10 17 11 32 1 15 5 27 9 27
3 0 6 6 7 13 4 46 11 72 21 75 6 2 9 7 6 12 -3 4 2 24 10 44 8 20 13 36 11 36
-3 0 2 16 10 35 8 20 12 40 9 45 -4 6 -1 10 5 10 7 0 10 7 6 15 -3 8 -2 15 3
15 4 0 8 6 8 13 1 6 8 34 17 61 8 27 13 53 10 58 -3 4 1 11 9 14 9 3 13 13 10
25 -3 10 -1 19 5 19 6 0 9 9 7 20 -2 11 1 20 6 20 6 0 8 4 4 9 -3 5 0 13 6 16
5 4 8 13 5 21 -3 7 -1 16 4 19 6 4 10 17 10 30 0 13 4 26 10 30 5 3 7 12 3 20
-3 8 -1 15 4 15 5 0 10 6 11 13 1 20 9 50 23 82 7 17 12 33 11 37 -1 4 3 20 9
35 10 25 14 42 22 78 2 6 6 16 10 23 5 6 6 12 2 12 -3 0 1 12 8 28 8 15 12 33
10 40 -3 6 -1 12 5 12 5 0 9 6 9 13 0 6 9 39 19 72 10 33 19 63 20 68 1 4 3 9
4 12 1 3 3 8 4 13 1 4 5 13 9 20 5 6 6 16 2 21 -3 5 0 13 6 16 5 4 8 13 5 20
-3 8 -1 15 4 17 6 2 11 15 12 31 1 15 6 27 10 27 4 0 7 3 6 8 -3 15 15 82 23
88 5 3 7 10 4 15 -4 5 -1 9 6 9 7 0 10 3 6 6 -3 3 2 29 10 57 9 29 16 58 16
65 0 6 5 12 10 12 6 0 8 3 4 6 -3 4 0 21 7 38 7 17 14 34 14 39 1 4 2 8 3 10
3 9 10 45 11 60 1 9 6 17 10 17 4 0 8 8 8 18 0 9 7 37 16 62 9 25 17 53 19 63
4 16 18 62 33 107 6 18 11 36 15 53 1 6 5 17 9 22 3 6 9 27 13 48 4 20 11 37
16 37 4 0 6 9 4 20 -2 11 0 22 6 25 5 4 9 17 9 30 0 13 4 26 10 30 5 3 7 12 3
20 -3 8 -1 15 4 15 5 0 10 6 11 13 1 20 9 51 27 103 9 27 17 57 18 67 1 9 4
17 7 17 4 0 7 6 8 13 1 18 9 49 20 78 6 15 8 30 5 33 -4 3 -1 6 5 6 7 0 11 3
10 8 -1 8 10 57 19 82 3 8 8 24 10 35 2 10 8 22 15 26 18 11 -22 19 -103 20
-40 0 -78 0 -84 -1 -5 -1 -14 -1 -20 0 -5 1 -56 2 -112 1 -57 -1 -109 -1 -115
-1 -7 0 -34 0 -59 1 -25 1 -51 -1 -57 -5 -7 -4 -12 -4 -12 1 0 10 -52 9 -68
-1 -7 -4 -12 -2 -12 4 0 7 -6 8 -19 1 -10 -6 -21 -8 -24 -4 -4 3 -54 5 -112 4
-137 -2 -112 -2 -335 1 -107 2 -205 2 -217 0z"/>
<path d="M7979 6940 c-1 -3 -1 -8 0 -12 0 -5 -3 -8 -9 -8 -5 0 -9 -3 -8 -7 2
-13 -14 -63 -21 -63 -3 0 -7 -12 -8 -27 0 -15 -6 -29 -12 -31 -9 -3 -9 -8 0
-18 9 -11 9 -14 0 -14 -7 0 -9 -4 -6 -10 3 -5 1 -10 -5 -10 -6 0 -8 -5 -5 -10
4 -6 2 -16 -3 -23 -10 -13 -26 -67 -24 -79 1 -5 -3 -8 -9 -8 -5 0 -8 -4 -5 -8
2 -4 -4 -35 -15 -67 -11 -33 -21 -67 -22 -75 -1 -8 -5 -19 -8 -25 -4 -5 -10
-23 -14 -40 -10 -37 -9 -34 -23 -68 -7 -16 -12 -34 -12 -40 0 -7 -11 -43 -25
-82 -13 -38 -25 -75 -25 -82 0 -6 -5 -24 -12 -40 -6 -15 -13 -35 -14 -43 -1
-8 -16 -58 -34 -110 -18 -52 -33 -99 -35 -105 -9 -42 -19 -72 -26 -80 -4 -5
-8 -14 -8 -20 -1 -26 -26 -105 -32 -105 -4 0 -6 -11 -4 -25 1 -14 -1 -25 -5
-25 -5 0 -11 -18 -15 -40 -4 -22 -11 -42 -16 -46 -5 -3 -9 -16 -9 -29 0 -13
-5 -27 -11 -30 -6 -4 -8 -13 -5 -21 3 -7 1 -16 -5 -19 -5 -4 -7 -10 -4 -15 3
-5 -2 -15 -10 -24 -11 -10 -12 -17 -4 -22 8 -5 7 -9 -4 -16 -9 -5 -14 -15 -11
-23 4 -8 2 -15 -3 -15 -5 0 -10 -9 -11 -20 -4 -43 -6 -50 -13 -50 -4 0 -6 -9
-4 -20 2 -11 0 -20 -4 -20 -8 0 -34 -91 -29 -101 2 -3 -2 -12 -8 -20 -6 -8
-15 -27 -19 -44 -5 -16 -9 -32 -10 -35 -1 -3 -6 -20 -10 -37 -4 -18 -11 -33
-15 -33 -5 0 -6 -9 -3 -20 3 -11 1 -20 -4 -20 -5 0 -10 -6 -11 -12 -1 -19 -9
-50 -21 -80 -6 -16 -8 -28 -5 -28 4 0 1 -7 -6 -15 -7 -8 -9 -15 -6 -15 4 0 1
-10 -5 -22 -7 -13 -14 -32 -15 -43 -1 -11 -8 -33 -15 -50 -7 -16 -13 -32 -14
-35 -7 -20 -17 -59 -19 -73 -1 -9 -5 -20 -9 -23 -4 -4 -7 -13 -7 -20 0 -10 43
-14 190 -16 105 -2 190 -1 190 2 0 3 27 3 60 0 33 -3 60 -3 60 0 0 3 90 3 201
0 111 -3 202 -3 204 0 2 3 64 3 139 0 75 -3 136 -3 136 0 0 3 43 4 95 2 100
-4 95 -5 99 41 1 6 7 18 14 26 7 7 11 20 8 27 -3 8 -1 14 5 14 6 0 8 4 4 9 -3
5 -1 12 5 16 6 4 8 11 4 16 -3 5 -1 15 4 22 6 7 11 15 11 20 1 4 1 8 2 10 0 1
2 10 5 20 10 41 21 73 33 97 4 8 7 23 5 33 -1 9 2 17 7 17 6 0 9 6 8 13 -4 23
13 67 24 60 6 -3 7 -1 3 5 -4 6 -1 31 5 54 7 24 12 46 11 51 -1 4 3 7 9 7 6 0
8 7 5 16 -4 9 -2 13 5 8 7 -4 9 0 5 14 -4 11 -2 23 4 27 6 3 8 11 5 16 -4 5
-2 9 2 9 5 0 10 12 11 26 1 14 5 31 9 37 4 7 8 15 9 20 1 4 3 9 4 12 1 3 4 10
5 15 1 6 4 12 5 15 3 6 3 7 14 55 4 19 15 46 23 59 8 13 10 21 4 17 -5 -4 -4
6 4 20 8 15 12 31 9 36 -3 4 0 8 7 8 7 0 10 3 6 6 -3 3 -1 18 5 33 5 14 12 37
14 51 2 14 8 34 13 45 23 52 32 85 27 94 -3 5 -2 11 4 13 6 2 12 12 14 23 4
20 43 147 53 175 3 8 8 26 10 40 2 13 10 28 16 32 7 4 8 8 4 8 -4 0 -2 10 5
23 7 12 11 30 9 40 -1 9 3 17 9 17 6 0 8 5 4 11 -3 6 -2 21 4 32 19 40 50 145
44 151 -3 3 0 6 7 6 7 0 10 4 6 10 -3 5 -1 17 4 27 17 33 50 146 45 155 -3 4
0 8 7 8 6 0 9 8 6 20 -3 11 -2 18 3 15 4 -2 11 10 15 28 7 30 9 36 15 55 1 4
2 10 1 14 0 4 7 24 16 45 15 36 22 59 24 93 1 8 7 21 12 29 12 14 18 34 20 64
1 9 5 17 10 17 4 0 6 3 4 8 -3 4 0 18 6 32 12 29 15 40 19 60 2 8 7 21 12 29
6 10 3 19 -10 28 -12 9 -20 10 -22 3 -2 -5 -9 -7 -15 -3 -6 3 -29 6 -51 5 -51
-3 -51 -3 -107 -1 -25 1 -51 -1 -57 -5 -7 -4 -12 -4 -12 1 0 10 -52 9 -68 -1
-7 -4 -12 -4 -12 1 0 10 -52 9 -68 -1 -7 -4 -12 -4 -12 1 0 10 -52 9 -68 -1
-7 -4 -12 -2 -12 4 0 7 -6 8 -19 1 -10 -6 -21 -8 -24 -4 -4 3 -54 5 -112 4
-58 -1 -111 -1 -117 -1 -7 0 -34 0 -59 1 -25 1 -51 -1 -57 -5 -7 -4 -12 -4
-12 1 0 10 -52 9 -68 -1 -7 -4 -12 -4 -12 1 0 10 -52 9 -68 -1 -7 -4 -12 -4
-12 1 0 10 -52 9 -68 -1 -7 -4 -12 -2 -12 4 0 7 -6 8 -19 1 -10 -6 -21 -8 -24
-5 -7 8 -157 11 -158 4z"/>
<path d="M3028 5546 c-10 -7 -15 -15 -12 -19 3 -3 -4 -8 -15 -12 -12 -3 -21
-11 -21 -16 0 -6 -31 -42 -69 -80 -39 -38 -68 -69 -67 -69 2 0 -42 -47 -99
-105 -56 -58 -101 -105 -99 -105 1 0 -31 -34 -72 -75 -41 -41 -74 -77 -74 -79
0 -9 -51 -56 -60 -56 -6 0 -10 -4 -10 -10 0 -5 -31 -41 -69 -80 -38 -38 -68
-70 -66 -70 1 0 -21 -24 -49 -52 -28 -29 -55 -51 -59 -50 -5 1 -6 -1 -3 -6 3
-5 -5 -18 -17 -29 -12 -10 -46 -46 -76 -79 -30 -32 -58 -58 -63 -57 -4 2 -8
-1 -8 -7 0 -5 -11 -20 -25 -34 -14 -14 -25 -29 -25 -34 0 -5 -11 -15 -25 -22
-14 -7 -23 -15 -21 -17 2 -3 -18 -26 -45 -52 -27 -26 -49 -53 -49 -59 0 -7 -3
-11 -7 -10 -8 3 -60 -46 -65 -60 -2 -4 -6 -6 -10 -4 -5 1 -8 -2 -8 -7 0 -13
-58 -70 -64 -63 -3 3 -6 0 -6 -7 0 -11 -29 -43 -201 -222 -47 -49 -84 -89 -83
-89 1 0 -29 -31 -66 -69 -38 -38 -66 -72 -63 -75 4 -3 -1 -6 -10 -6 -10 0 -17
-3 -17 -7 0 -13 -123 -138 -133 -135 -5 1 -6 -2 -2 -8 3 -5 1 -10 -4 -10 -6 0
-11 -7 -11 -16 0 -8 -4 -13 -8 -10 -5 3 -15 -6 -22 -19 -7 -13 -17 -22 -21
-20 -4 3 -10 -4 -14 -15 -4 -11 -11 -18 -16 -15 -5 4 -9 2 -9 -4 0 -5 -31 -42
-69 -80 -37 -39 -68 -71 -66 -71 1 0 -36 -39 -82 -86 -46 -47 -83 -90 -83 -95
0 -5 -5 -9 -12 -9 -6 0 -8 -3 -5 -7 8 -7 206 -5 218 3 5 3 9 2 9 -3 0 -8 349
-7 383 1 9 2 17 1 17 -2 0 -9 135 -6 149 3 6 3 11 3 11 -2 0 -9 134 -8 149 2
6 3 11 3 11 -2 0 -9 134 -8 149 2 6 3 11 3 11 -2 0 -8 190 -7 223 1 9 2 17 1
17 -2 0 -4 17 -6 37 -5 21 1 77 2 125 2 l87 1 12 43 c7 23 16 46 21 51 4 6 8
20 8 31 0 12 3 25 7 29 4 3 8 13 9 21 3 22 68 219 74 225 3 3 5 14 4 25 0 11
3 25 7 30 4 6 10 27 14 48 4 20 11 37 15 37 4 0 8 12 8 26 0 15 3 29 8 33 5 3
11 17 12 31 2 14 7 30 11 35 4 6 7 17 6 25 -1 8 3 24 9 35 6 11 11 23 12 28 1
4 3 9 4 12 1 3 3 9 4 14 0 5 4 13 8 17 4 4 3 13 -4 21 -9 11 -8 13 3 11 9 -2
14 5 13 20 -1 12 2 22 6 22 4 0 7 7 8 15 1 8 3 22 4 30 1 8 4 15 8 15 4 0 7 6
8 13 1 14 10 51 12 55 2 1 4 7 5 12 1 6 4 12 5 15 1 3 4 10 5 15 1 6 3 11 4
13 2 1 4 13 7 26 2 14 8 29 13 35 5 6 7 19 6 29 -2 9 1 17 7 17 6 0 8 7 5 15
-4 8 -2 17 2 19 5 3 12 20 16 38 7 31 9 37 15 56 1 4 2 10 1 15 0 4 3 7 7 7 4
0 8 8 9 18 1 9 11 45 23 79 12 34 22 71 23 82 1 12 5 21 9 21 4 0 8 7 8 17 0
19 32 125 40 133 7 7 13 31 14 62 0 14 4 24 8 21 5 -2 8 2 9 9 1 30 10 62 19
73 5 7 7 15 3 18 -3 4 -2 7 3 7 5 0 11 9 12 20 4 44 6 50 15 50 6 0 8 3 4 6
-3 3 1 23 8 45 8 21 12 39 8 39 -3 0 -1 6 4 13 6 6 9 20 8 30 -2 9 1 15 6 11
5 -3 10 1 10 8 1 14 5 29 9 41 1 4 4 12 5 17 1 6 3 11 5 13 2 3 11 40 12 55 1
6 4 12 8 12 5 0 9 18 12 58 1 6 5 12 9 12 3 0 9 14 13 30 3 17 9 44 12 60 4
17 10 30 14 30 5 0 7 11 5 25 -1 14 2 25 6 25 5 0 9 9 9 19 0 11 5 21 12 23 7
3 8 7 2 10 -5 4 -17 1 -26 -6z"/>
</g>
</svg>
